# xmcd
#
# Track frame offsets: 
#        150
#        21784
#        43884
#        66219
#        86586
#        107671
#        126516
#        148909
#        170166
#        190554
#        211078
#        233412
#        249597
#        270754
#
# Disc length: 3873 seconds
#
# Revision: 2
# Processed by: cddbd v1.5.2PL0 Copyright (c) Steve Scherf et al.
# Submitted via: ExactAudioCopy v1.0b3
#
DISCID=c10f1f0e
DTITLE=Barbara Carr - The Best Of Barbara Carr
DYEAR=2003
DGENRE=Soul
TTITLE0=Bone Me Like You Own Me
TTITLE1=If You Can't Cut The Mustard
TTITLE2=Hoochie Dance
TTITLE3=Right Kind Of Love
TTITLE4=Bo Haug Grind
TTITLE5=I've Been Partying At The Hole In The Wall
TTITLE6=Let A Real Woman Try
TTITLE7=The Best Woman Won
TTITLE8=Juke Joint Jumpin'
TTITLE9=Good Looks Can Get Him But It Takes Good Lovin' To Keep Him
TTITLE10=Make Me Feel It Like You Feel It Too
TTITLE11=As Long As You Were Cheating
TTITLE12=If The Lord Keeps The Thought Of You Out Of My Head
TTITLE13=Footprints On The Ceiling
EXTD=
EXTT0=
EXTT1=
EXTT2=
EXTT3=
EXTT4=
EXTT5=
EXTT6=
EXTT7=
EXTT8=
EXTT9=
EXTT10=
EXTT11=
EXTT12=
EXTT13=
PLAYORDER=
